<svg width="513" height="512" viewBox="0 0 513 512" fill="none" xmlns="http://www.w3.org/2000/svg">
<rect x="0.316406" width="512" height="512" rx="128" fill="#FF8A20"/>
<path d="M230.567 242.572C239.027 242.572 246.016 228.595 246.016 211.308C246.016 210.94 246.016 209.101 246.016 208.366C246.016 191.079 239.027 177.102 230.567 177.102C222.107 177.102 215.12 191.079 215.12 208.366C215.12 208.734 215.12 210.572 215.12 211.308C215.12 228.595 222.107 242.572 230.567 242.572Z" fill="white"/>
<path d="M369.97 256.927C351.212 294.812 312.591 320.926 267.35 320.926C221.741 320.926 182.016 294.076 163.993 255.088L183.489 248.836L145.236 224.928L128.316 266.858L148.546 260.237C168.776 305.478 214.385 336.743 267.35 336.743C318.844 336.743 362.983 306.949 384.316 263.915L369.97 256.927Z" fill="white"/>
<path d="M303.761 238.52C312.293 238.52 319.21 224.357 319.21 206.887C319.21 189.417 312.293 175.257 303.761 175.257C295.229 175.257 288.313 189.417 288.313 206.887C288.313 224.357 295.229 238.52 303.761 238.52Z" fill="white"/>
</svg>
