<svg fill="none" height="65" viewBox="0 0 81 65" width="81" xmlns="http://www.w3.org/2000/svg"><g fill="#111827" fill-opacity=".8"><path d="m17.3722 57.106v-2.8916c-.0001-.4764-.1224-.9406-.3574-1.3584-3.5461-6.2618-7.62987-10.3319-11.02347-14.4883-3.37589-4.1347-5.99120827-8.2946-5.99120827-14.4258v-14.3154c-.00640454-1.31595.23948427-2.45713.83691427-3.26953.660324-.89785 1.653384-1.25529 2.677734-1.07422.93584.16544 1.80271.75486 2.52246 1.51855.64391.6833 1.23363 1.57127 1.71973 2.62402l.20215.46094.00097.00391c.474 1.15363.7638 2.36633.89356 3.58403l.0459.5224.00195.0313.00098.0312.10644 6.1582v.002c.01517.9695.22764 1.9231.62109 2.7988l.9033 2.0068c.2743.609.0034 1.3251-.60544 1.5996-.60915.2744-1.32621.0027-1.60059-.6064l-.9043-2.0078c-.5285-1.1763-.81342-2.4543-.83398-3.751l-.10645-6.1211c-.08245-1.1504-.32903-2.2794-.75879-3.3262-.42817-1.03297-.94528-1.81883-1.44726-2.35152-.51767-.54923-.94473-.75275-1.18262-.79492-.14946-.02642-.21114-.00619-.30762.125-.15828.21523-.37212.75207-.36621 1.8291v14.32224c0 5.3013 2.19939 8.92 5.44532 12.8955 3.12744 3.8304 7.30364 8.0536 10.90824 14.2237l.3466.6035.001.0019c.4381.7775.6709 1.6508.6709 2.5479v2.8916c0 .6681-.5419 1.2099-1.2099 1.2099-.6681 0-1.21-.5418-1.21-1.2099z"/><path d="m10.6358 23.8072c1.6463-.2514 3.0776-.1208 4.4112.4258 1.3165.5397 2.443 1.4459 3.5419 2.5801l.0127.0127.0127.0137 5.1788 5.6758.0009.0019c.5129.5643 1.1001 1.0649 1.7403 1.4893l.2773.1767.002.002c3.1556 1.9491 5.3064 5.1599 6.6689 9.0976 1.3615 3.9351 1.9654 8.6745 1.9834 13.8282.0023.668-.537 1.2115-1.2051 1.2138-.668.0023-1.2114-.537-1.2138-1.2051-.0175-4.9935-.6061-9.4463-1.8516-13.0459-1.2446-3.5969-3.1159-6.2628-5.6533-7.83-.9353-.5751-1.7947-1.2817-2.5381-2.0996l-5.1524-5.6475-.3632-.3643c-.8356-.8097-1.5872-1.3446-2.3594-1.6611-.8611-.3529-1.8412-.4717-3.1406-.2715l-.0088.001-.0078.001-.3741.0527c-.319.0469-.5878.3027-.63375.6611-.02357.1847.03615.4233.20895.6368l8.7793 10.8086c.4209.5185.3417 1.28-.1767 1.7011-.5185.421-1.28.3424-1.7012-.1758l-8.7793-10.8085c-.5359-.6607-.84852-1.5472-.73046-2.4688.18469-1.444 1.29842-2.5448 2.68166-2.748l.0078-.001z"/><path d="m35.8263 62.9432v-3.8642c0-.4281-.3435-.7627-.75-.7627h-17.664c-.4065 0-.75.3346-.75.7627v3.8642c-.0001.6681-.542 1.21-1.21 1.21s-1.2099-.5419-1.21-1.21v-3.8642c0-1.7496 1.4127-3.1826 3.17-3.1826h17.664c1.7573 0 3.1699 1.433 3.1699 3.1826v3.8642c0 .6681-.5419 1.21-1.2099 1.21s-1.2099-.542-1.21-1.21z"/><path d="m61.118 57.0977v-2.8916c0-.8972.2328-1.7713.6709-2.5488l.001-.0019c3.6809-6.5 8.0257-10.8725 11.2539-14.8262 3.246-3.9756 5.4463-7.5943 5.4463-12.8955v-14.31545c0-.66809.5419-1.20996 1.21-1.20996.668.00011 1.209.54194 1.209 1.20996v14.31545c-.0001 6.131-2.6154 10.2901-5.9912 14.4248-3.3937 4.1564-7.4764 8.2273-11.0225 14.4892-.235.4179-.3574.882-.3574 1.3584v2.8916c0 .6681-.5419 1.21-1.21 1.21s-1.21-.5419-1.21-1.21z"/><path d="m77.387 5.28303c1.0241-.18099 2.0164.17669 2.6767 1.07422.5985.81381.8442 1.95753.837 3.27637-.0038.66798-.5479 1.20668-1.2159 1.20308-.668-.0037-1.2068-.5487-1.2031-1.21676.0059-1.07689-.2079-1.61381-.3662-1.8291-.0965-.13119-.1582-.15142-.3076-.125-.2379.0421-.6649.24563-1.1826.79492-.502.5327-1.0191 1.31953-1.4473 2.35254l-.001-.001c-.4314 1.0509-.6783 2.1848-.7597 3.3399l-.1055 6.1074c-.0206 1.2966-.3045 2.5737-.833 3.75l-.9053 2.0088c-.2744.6091-.9905.8808-1.5996.6064-.609-.2745-.8798-.9905-.6055-1.5996l.9043-2.0068c.3935-.8758.605-1.8293.6201-2.7988v-.002l.1065-6.1582.001-.0313.0019-.0312c.0967-1.3921.3977-2.7879.9395-4.10645l.0009-.0039c.5207-1.2561 1.1861-2.30409 1.9219-3.08497.7198-.76365 1.5867-1.35313 2.5225-1.51855z"/><path d="m65.8535 24.233c1.3334-.5465 2.7642-.6771 4.4102-.4258l.001-.001.3818.0538.0068.0009c1.3835.2031 2.498 1.304 2.6827 2.7481.1032.8062-.123 1.5852-.5401 2.2099l-.1904.2588-8.7793 10.8086c-.4213.5184-1.1837.597-1.7022.1758-.5182-.4212-.5966-1.1827-.1757-1.7012l8.7793-10.8086c.1727-.2134.2325-.4511.2089-.6357-.0459-.3584-.3148-.6151-.6338-.6621l-.374-.0527-.0088-.001-.0078-.001c-1.2995-.2003-2.2796-.0813-3.1406.2715-.8825.3617-1.7379 1.009-2.7227 2.0254l-5.1533 5.6465.001.0009c-.7437.8184-1.6043 1.5235-2.54 2.0987l.0009.0009c-2.5371 1.5673-4.4087 4.2333-5.6533 7.8301-1.2454 3.5995-1.8331 8.0525-1.8506 13.0459-.0024.668-.5459 1.2073-1.2138 1.2051-.6681-.0023-1.2084-.5458-1.2061-1.2139.018-5.1536.6229-9.8931 1.9844-13.8281 1.3624-3.9375 3.5125-7.1485 6.668-9.0976l.0029-.002c.7484-.4599 1.4306-1.0213 2.0166-1.666l.0019-.002 5.1788-5.6757.0126-.0137.0118-.0127c1.0991-1.1344 2.2263-2.0404 3.5429-2.5801z"/><path d="m64.2392 62.9434v-3.8642c0-.4281-.3436-.7627-.75-.7627h-17.6641c-.4065 0-.75.3346-.75.7627v3.8642c-.0001.668-.5419 1.21-1.21 1.21-.668 0-1.2098-.542-1.2099-1.21v-3.8642c0-1.7496 1.4127-3.1827 3.1699-3.1827h17.6641c1.7572 0 3.1699 1.4331 3.1699 3.1827v3.8642c-.0001.668-.5419 1.21-1.21 1.21-.668 0-1.2099-.542-1.2099-1.21z"/></g><path d="m40.4471 3.506c2.9718-2.873926 7.6615-4.402183 11.8907-2.890629 6.5022 2.310249 9.8973 9.601029 7.6865 16.247029-.5752 1.7289-2.0809 3.8313-3.8584 5.9248-1.8121 2.1343-4.0319 4.4013-6.1895 6.4795-4.3177 4.159-8.4549 7.6275-8.7509 7.875l-.7803.6524-.7774-.6572c-.3095-.2619-4.4465-3.7322-8.7587-7.8868-2.1554-2.0766-4.3723-4.3405-6.1817-6.4716-1.7747-2.0904-3.2773-4.1889-3.8525-5.9151-2.2109-6.6459 1.1835-13.93762 7.6855-16.248029 4.2273-1.503169 8.9145.025028 11.8867 2.890629zm11.0782-.61231c-3.5751-1.27866-7.8201.29814-10.1358 3.15723l-.9385 1.15918-.9404-1.15821c-2.2435-2.76231-6.2995-4.32895-9.8027-3.26757l-.3369.11035c-5.203 1.84861-8.0159 7.74843-6.2012 13.20413l.0869.2392c.4812 1.2267 1.6561 2.9196 3.3154 4.874 1.7356 2.0442 3.888 4.246 6.0157 6.2959 3.2633 3.1441 6.4287 5.8937 7.8623 7.1192 1.4276-1.2188 4.5886-3.9624 7.8486-7.1026 2.1299-2.0515 4.2852-4.2563 6.0234-6.3037 1.7729-2.0882 2.9927-3.879 3.4063-5.122 1.8149-5.4558-.9972-11.35549-6.2002-13.20413z" fill="#ff7f00"/></svg>