<svg width="82" height="65" viewBox="0 0 82 65" fill="none" xmlns="http://www.w3.org/2000/svg">
<path d="M18.2814 57.7295V54.8379C18.2813 54.3615 18.159 53.8973 17.924 53.4795C14.3779 47.2177 10.2941 43.1476 6.90051 38.9912C3.52462 34.8565 0.909301 30.6966 0.909301 24.5654V10.25C0.902897 8.93406 1.14879 7.79288 1.74622 6.98047C2.40654 6.08263 3.3996 5.72518 4.42395 5.90626C5.35979 6.0717 6.22666 6.66112 6.94641 7.42481C7.59032 8.10811 8.18003 8.99607 8.66614 10.0488L8.86829 10.5098L8.86926 10.5137C9.34326 11.6673 9.63306 12.88 9.76282 14.0977L9.80872 14.6201L9.81067 14.6514L9.81165 14.6826L9.91809 20.8408V20.8428C9.93326 21.8123 10.1457 22.7659 10.5392 23.6416L11.4425 25.6484C11.7168 26.2574 11.4459 26.9735 10.837 27.2481C10.2279 27.5224 9.51083 27.2507 9.23645 26.6416L8.33215 24.6338C7.80365 23.4575 7.51873 22.1795 7.49817 20.8828L7.39172 14.7617C7.30927 13.6113 7.06269 12.4823 6.63293 11.4356C6.20476 10.4025 5.68765 9.61668 5.18567 9.08399C4.668 8.53476 4.24094 8.33124 4.00305 8.28907C3.85359 8.26265 3.79191 8.28288 3.69543 8.41407C3.53715 8.6293 3.32331 9.16614 3.32922 10.2432V24.5654C3.32922 29.8667 5.52861 33.4854 8.77454 37.4609C11.902 41.2913 16.0781 45.5145 19.6827 51.6846L20.0294 52.2881L20.0304 52.29C20.4685 53.0675 20.7012 53.9408 20.7013 54.8379V57.7295C20.7013 58.3976 20.1594 58.9394 19.4913 58.9395C18.8232 58.9395 18.2814 58.3976 18.2814 57.7295Z" fill="#111827" fill-opacity="0.8"/>
<path d="M11.5465 24.4307C13.1927 24.1792 14.624 24.3098 15.9576 24.8564C17.2741 25.3961 18.4006 26.3023 19.4996 27.4365L19.5123 27.4492L19.525 27.4629L24.7037 33.1387L24.7047 33.1406C25.2175 33.7049 25.8047 34.2055 26.4449 34.6299L26.7222 34.8066L26.7242 34.8086C29.8799 36.7577 32.0306 39.9685 33.3931 43.9062C34.7547 47.8413 35.3585 52.5807 35.3765 57.7344C35.3789 58.4024 34.8395 58.9459 34.1715 58.9482C33.5034 58.9505 32.96 58.4112 32.9576 57.7432C32.9401 52.7496 32.3515 48.2968 31.106 44.6973C29.8614 41.1003 27.9901 38.4344 25.4527 36.8672C24.5175 36.2921 23.658 35.5856 22.9146 34.7676L17.7623 29.1201L17.399 28.7559C16.5635 27.9461 15.8118 27.4112 15.0396 27.0947C14.1786 26.7419 13.1985 26.623 11.899 26.8232L11.8902 26.8242L11.8824 26.8252L11.5084 26.8779C11.1894 26.9248 10.9205 27.1806 10.8746 27.5391C10.851 27.7237 10.9108 27.9623 11.0836 28.1758L19.8629 38.9844C20.2837 39.5029 20.2045 40.2644 19.6861 40.6855C19.1677 41.1065 18.4062 41.0279 17.9849 40.5098L9.20564 29.7012C8.66974 29.0405 8.35711 28.154 8.47517 27.2324C8.65986 25.7885 9.77359 24.6876 11.1568 24.4844L11.1646 24.4834L11.5465 24.4307Z" fill="#111827" fill-opacity="0.8"/>
<path d="M36.737 63.5669V59.7026C36.737 59.2746 36.3934 58.9399 35.987 58.9399H18.3229C17.9164 58.9399 17.5729 59.2745 17.5729 59.7026V63.5669C17.5728 64.2349 17.031 64.7768 16.3629 64.7768C15.6949 64.7768 15.1531 64.2349 15.153 63.5669V59.7026C15.153 57.953 16.5657 56.52 18.3229 56.52H35.987C37.7442 56.52 39.1569 57.953 39.1569 59.7026V63.5669C39.1568 64.2349 38.615 64.7768 37.9469 64.7768C37.2789 64.7768 36.737 64.2349 36.737 63.5669Z" fill="#111827" fill-opacity="0.8"/>
<path d="M62.0282 57.7212V54.8296C62.0282 53.9324 62.2609 53.0583 62.6991 52.2807L62.7001 52.2788C66.381 45.7788 70.7257 41.4064 73.954 37.4526C77.2 33.4771 79.4002 29.8584 79.4003 24.5571V10.2417C79.4003 9.57359 79.9421 9.03172 80.6102 9.03172C81.2782 9.03183 81.8192 9.57366 81.8192 10.2417V24.5571C81.8191 30.6882 79.2039 34.8472 75.828 38.9819C72.4343 43.1383 68.3516 47.2092 64.8055 53.4712C64.5705 53.889 64.4481 54.3531 64.4481 54.8296V57.7212C64.4481 58.3893 63.9062 58.9311 63.2381 58.9311C62.5701 58.9311 62.0282 58.3893 62.0282 57.7212Z" fill="#111827" fill-opacity="0.8"/>
<path d="M78.2971 5.90626C79.3213 5.72526 80.3136 6.08294 80.9739 6.98047C81.5723 7.79429 81.8181 8.93801 81.8108 10.2568C81.8071 10.9249 81.263 11.4636 80.595 11.46C79.9269 11.4563 79.3881 10.9112 79.3918 10.2432C79.3978 9.16627 79.1839 8.62936 79.0256 8.41407C78.9292 8.28287 78.8675 8.26265 78.718 8.28907C78.4802 8.33117 78.0532 8.53469 77.5354 9.08399C77.0334 9.61668 76.5163 10.4035 76.0881 11.4365L76.0872 11.4356C75.6558 12.4864 75.4088 13.6204 75.3274 14.7754L75.2219 20.8828C75.2014 22.1794 74.9174 23.4565 74.3889 24.6328L73.4836 26.6416C73.2093 27.2507 72.4932 27.5224 71.884 27.2481C71.2751 26.9736 71.0042 26.2575 71.2786 25.6484L72.1829 23.6416C72.5763 22.7659 72.7878 21.8123 72.803 20.8428V20.8408L72.9094 14.6826L72.9104 14.6514L72.9124 14.6201C73.0091 13.228 73.31 11.8322 73.8518 10.5137L73.8528 10.5098C74.3734 9.25368 75.0388 8.20569 75.7747 7.42481C76.4944 6.66116 77.3613 6.07168 78.2971 5.90626Z" fill="#111827" fill-opacity="0.8"/>
<path d="M66.7637 24.8564C68.0971 24.3099 69.5279 24.1794 71.1738 24.4307L71.1748 24.4297L71.5566 24.4834L71.5635 24.4844C72.9469 24.6874 74.0614 25.7883 74.2461 27.2324C74.3494 28.0386 74.1231 28.8176 73.7061 29.4424L73.5156 29.7012L64.7363 40.5098C64.3151 41.0281 63.5527 41.1067 63.0342 40.6855C62.5159 40.2643 62.4375 39.5028 62.8584 38.9844L71.6377 28.1758C71.8104 27.9623 71.8702 27.7247 71.8467 27.54C71.8007 27.1817 71.5318 26.9249 71.2129 26.8779L70.8389 26.8252L70.8301 26.8242L70.8223 26.8232C69.5228 26.623 68.5427 26.7419 67.6816 27.0947C66.7992 27.4564 65.9438 28.1037 64.959 29.1201L59.8057 34.7666L59.8066 34.7676C59.0629 35.5859 58.2023 36.291 57.2666 36.8662L57.2676 36.8672C54.7304 38.4344 52.8588 41.1005 51.6143 44.6973C50.3688 48.2968 49.7811 52.7497 49.7637 57.7432C49.7613 58.4111 49.2177 58.9504 48.5498 58.9482C47.8817 58.9459 47.3414 58.4024 47.3438 57.7344C47.3618 52.5807 47.9666 47.8413 49.3281 43.9062C50.6906 39.9687 52.8406 36.7577 55.9961 34.8086L55.999 34.8066C56.7474 34.3468 57.4297 33.7854 58.0156 33.1406L58.0176 33.1387L63.1963 27.4629L63.209 27.4492L63.2207 27.4365C64.3198 26.3021 65.447 25.3961 66.7637 24.8564Z" fill="#111827" fill-opacity="0.8"/>
<path d="M65.1493 63.5669V59.7026C65.1493 59.2745 64.8058 58.9399 64.3993 58.9399H46.7352C46.3288 58.9399 45.9852 59.2746 45.9852 59.7026V63.5669C45.9852 64.2349 45.4433 64.7768 44.7753 64.7768C44.1072 64.7768 43.5654 64.2349 43.5653 63.5669V59.7026C43.5653 57.953 44.978 56.52 46.7352 56.52H64.3993C66.1565 56.52 67.5692 57.953 67.5692 59.7026V63.5669C67.5691 64.2349 67.0273 64.7768 66.3593 64.7768C65.6913 64.7768 65.1494 64.2349 65.1493 63.5669Z" fill="#111827" fill-opacity="0.8"/>
<path d="M56.5284 0.196222C50.5341 1.028 45.2765 3.95425 42.0802 8.23338C40.258 10.6686 39.3619 13.3142 39.2225 16.7115C39.1129 19.2469 39.2324 20.239 39.7104 20.8102C40.2779 21.4917 41.204 21.4115 41.6023 20.6499C41.7815 20.3092 41.7815 20.0386 41.6521 19.0164C41.3035 16.4509 42.0006 12.9735 43.3149 10.7588C43.6435 10.1976 44.5497 9.07518 45.3064 8.28349C48.1941 5.26705 51.9878 3.36298 56.4388 2.70157C58.8784 2.3408 58.6792 2.23057 58.7887 3.98431C58.968 6.65 58.4402 10.6686 57.6038 12.8933C57.0561 14.3565 55.7219 16.8117 54.8357 17.9842C53.6507 19.5576 51.9281 21.1209 50.3847 22.0529C49.6279 22.5039 48.8811 22.8746 48.7218 22.8746C48.1144 22.8847 47.5568 23.6764 47.7161 24.3077C47.8754 24.9491 48.3633 25.36 48.9508 25.36C49.4387 25.36 50.7332 24.7086 52.5853 23.5361C55.5128 21.6721 58.5398 17.5132 60.0135 13.2942C60.9097 10.7187 61.1188 9.17539 61.1188 4.70585C61.1188 -0.124463 61.2084 0.0859869 59.2766 0.0258585C58.6095 0.00581574 57.3847 0.0759655 56.5384 0.196222H56.5284Z" fill="#00A42F"/>
<path d="M23.509 11.0995C21.8063 11.5605 21.408 12.3622 21.6768 14.8174C22.2145 19.748 24.2558 23.4759 27.3028 25.0793C28.3782 25.6506 30.8775 26.5224 31.4152 26.5224C31.5844 26.5224 31.923 26.3621 32.1421 26.1717C32.6997 25.6907 32.6997 24.8589 32.1421 24.3778C31.923 24.1874 31.6143 24.0271 31.4749 24.0271C31.0667 24.0271 29.1847 23.3456 28.3881 22.9047C27.3625 22.3435 26.088 20.9205 25.4407 19.5976C24.8134 18.3249 24.206 16.0601 24.0766 14.5368L23.9869 13.4846L24.3952 13.3844C25.1619 13.194 28.2686 13.4245 29.3042 13.7552C31.3654 14.4066 34.1335 16.8518 35.4877 19.1968C36.2445 20.4996 36.5631 20.8102 37.1805 20.8102C38.0767 20.8102 38.5048 19.8682 38.0568 18.8561C36.5134 15.3486 32.381 11.8311 29.0553 11.1897C27.1136 10.8189 24.6939 10.7788 23.519 11.0995H23.509Z" fill="#00A42F"/>
<path d="M49.7087 11.5104C49.5991 11.5505 49.3801 11.8612 49.2108 12.2019C49.0415 12.5326 48.464 13.3143 47.9263 13.9156C45.3274 16.8318 43.8039 19.5175 42.629 23.2755C41.8722 25.6807 41.0756 29.8696 41.0756 31.463C41.0756 31.8138 41.0159 32.1345 40.9462 32.1745C40.8765 32.2146 40.508 31.4229 40.1197 30.3907C38.3971 25.7408 36.2064 22.103 33.4084 19.287C31.7654 17.6335 31.0784 17.3629 30.3415 18.0945C29.6545 18.786 29.8138 19.1467 31.5663 20.9005C33.4881 22.8246 34.6531 24.448 35.9874 27.0235C37.0926 29.1581 38.7356 33.317 39.5422 36.0027C40.0898 37.8366 40.2691 38.2375 40.6176 38.5181C41.1553 38.939 42.5792 38.5181 42.9078 37.8366C43.0073 37.6462 43.1169 36.7243 43.1667 35.7822C43.4853 29.5289 44.2122 25.4903 45.6759 21.9126C46.7214 19.3371 47.7271 17.8039 50.2065 14.9578C51.6404 13.3143 51.8794 12.4524 51.1326 11.7008C50.8538 11.4202 50.1368 11.32 49.7087 11.5004V11.5104Z" fill="#00A42F"/>
</svg>
