<svg width="87" height="54" viewBox="0 0 87 54" fill="none" xmlns="http://www.w3.org/2000/svg">
<path d="M31.3056 0.88142C33.5983 0.191364 36.0917 0.44599 38.1943 1.58455L41.4316 3.3365C42.0191 3.65447 42.2378 4.38862 41.9199 4.97615C41.6019 5.56365 40.8678 5.7823 40.2803 5.46443L37.042 3.71248C35.488 2.87107 33.6355 2.68774 31.9453 3.21345L31.9043 3.22615L31.8623 3.23591C28.4271 4.04175 25.9415 5.09459 23.376 6.12556C20.8049 7.15875 18.1769 8.15863 14.5879 8.74958C13.9287 8.85801 13.3068 8.41166 13.1982 7.75251C13.0898 7.0934 13.5362 6.47139 14.1953 6.36287C17.5161 5.81606 19.9453 4.8974 22.4736 3.88142C25.0065 2.86356 27.6624 1.73641 31.3056 0.88142Z" fill="#111827" fill-opacity="0.8"/>
<path d="M5.45927 2.89446C5.56174 2.23438 6.18 1.78234 6.84013 1.8847L12.8382 2.81439L12.8372 2.81536C14.718 3.10463 16.0538 4.84264 15.7474 6.75189V6.75384L11.6917 31.7177C11.385 33.6137 9.57899 34.8586 7.69951 34.5722L7.6956 34.5712L1.69755 33.6415C1.03747 33.5391 0.585473 32.9208 0.687789 32.2607C0.790163 31.6005 1.40845 31.1485 2.06865 31.2509L8.0667 32.1806C8.69103 32.2748 9.21768 31.859 9.30302 31.331L13.3587 6.36614C13.443 5.83466 13.075 5.29904 12.469 5.20599H12.4671L6.46904 4.27532C5.80891 4.17289 5.35691 3.55462 5.45927 2.89446Z" fill="#111827" fill-opacity="0.8"/>
<path d="M36.783 39.4625C38.3283 37.4281 41.2389 37.0338 43.2528 38.6422L43.2537 38.6412C45.2488 40.2263 45.5943 43.1647 44.0604 45.1851L44.0614 45.1861L40.952 49.2887L40.951 49.2896C39.4056 51.3241 36.4941 51.7188 34.4803 50.1099C32.4854 48.5245 32.1392 45.5853 33.6737 43.565L36.783 39.4625ZM41.7449 40.5328C40.8112 39.786 39.4473 39.9546 38.7098 40.9244L35.6004 45.0279C34.8517 46.0137 35.0329 47.4596 35.9852 48.2164L35.9891 48.2193C36.9231 48.9664 38.2869 48.7965 39.0242 47.8258L42.1336 43.7242L42.1346 43.7232C42.8831 42.7375 42.701 41.2924 41.7489 40.5357L41.7449 40.5328Z" fill="#111827" fill-opacity="0.8"/>
<path d="M31.4558 35.2435C33.001 33.2093 35.9117 32.8142 37.9255 34.4222C39.9207 36.0072 40.267 38.9457 38.7331 40.9661L34.1921 46.9544C32.6461 48.9899 29.7325 49.3859 27.7185 47.7747C25.7262 46.1888 25.381 43.251 26.9148 41.2318L31.4558 35.2435ZM36.4177 36.3138C35.4836 35.5666 34.1199 35.7365 33.3825 36.7074L33.3816 36.7064L28.8415 42.6947C28.1395 43.6189 28.2553 44.9468 29.0573 45.7327L29.2263 45.8831L29.2302 45.8851C30.1642 46.6324 31.5279 46.4624 32.2653 45.4915L36.8064 39.5052C37.5552 38.5193 37.3731 37.0734 36.4206 36.3167L36.4177 36.3138Z" fill="#111827" fill-opacity="0.8"/>
<path d="M26.201 30.842C27.7462 28.8079 30.6569 28.4126 32.6707 30.0207C34.6038 31.5564 34.99 34.3634 33.617 36.3742L33.4783 36.5656L27.4119 44.5627C25.8659 46.5982 22.9523 46.9942 20.9383 45.383C18.946 43.7971 18.6008 40.8593 20.1346 38.8401L26.201 30.842ZM31.1629 31.9123C30.2288 31.165 28.8651 31.3351 28.1277 32.3059L28.1267 32.3049L22.0613 40.3029C21.3593 41.2272 21.4751 42.5551 22.2771 43.341L22.4461 43.4914L22.45 43.4934C23.384 44.2406 24.7477 44.0707 25.4851 43.0998L31.5515 35.1037C32.3004 34.1179 32.1183 32.6719 31.1658 31.9153L31.1629 31.9123Z" fill="#111827" fill-opacity="0.8"/>
<path d="M17.577 30.8254C19.1223 28.7914 22.032 28.397 24.0458 30.0051L24.0467 30.0041C25.9799 31.5399 26.3653 34.3468 24.992 36.3576L24.8544 36.549L21.9999 40.3108C20.4538 42.3462 17.5402 42.7422 15.5262 41.1311C13.5339 39.5451 13.1888 36.6074 14.7225 34.5881L17.577 30.8254ZM22.5389 31.8957C21.6051 31.1486 20.2413 31.3182 19.5038 32.2883L16.6493 36.051C15.9473 36.9752 16.063 38.3032 16.8651 39.0891L17.034 39.2395L17.0379 39.2414C17.9136 39.942 19.1668 39.8366 19.9276 39.0207L20.0731 38.8479L22.9266 35.0871L22.9276 35.0862C23.6763 34.1004 23.4942 32.6554 22.5419 31.8987L22.5389 31.8957Z" fill="#111827" fill-opacity="0.8"/>
<path d="M9.76692 29.1596C10.1328 28.6007 10.8818 28.4442 11.4407 28.81C13.7864 30.3454 15.8648 32.002 17.2025 33.9438C17.5815 34.494 17.4421 35.2474 16.8919 35.6264C16.3419 36.0051 15.5893 35.8666 15.2103 35.3168C14.1452 33.7707 12.3889 32.3209 10.1165 30.8334C9.55759 30.4676 9.40111 29.7186 9.76692 29.1596Z" fill="#111827" fill-opacity="0.8"/>
<path d="M69.5802 31.9122C72.2485 30.9614 74.3874 31.1232 76.9845 31.6329C77.6401 31.7616 78.0672 32.3973 77.9386 33.0528C77.8098 33.7083 77.1741 34.1356 76.5187 34.0069C74.1229 33.5367 72.4786 33.4483 70.3927 34.1915C69.7634 34.4158 69.071 34.0874 68.8468 33.4581C68.6226 32.8288 68.9509 32.1365 69.5802 31.9122Z" fill="#337AFF"/>
<path d="M43.6693 34.6548C44.0499 34.106 44.8039 33.9697 45.3529 34.3502L58.2855 43.3101L58.2884 43.3121C58.8412 43.6969 59.4896 43.8843 60.1878 43.8843C61.4504 43.8842 62.813 43.2404 63.7171 41.9986L63.8206 41.8433C64.2886 41.066 64.0529 40.2754 63.597 39.9537L63.5843 39.9449L63.5726 39.9361L62.7464 39.3218C62.2103 38.9232 62.0988 38.1646 62.4974 37.6285C62.8961 37.0927 63.6538 36.981 64.1898 37.3795L65.016 37.9947C66.79 39.2675 66.906 41.7303 65.6732 43.4224C64.3281 45.2699 62.248 46.3042 60.1878 46.3043C59.0459 46.3043 57.9044 45.9929 56.9066 45.2984L55.9124 44.6109L55.9115 44.6099L43.974 36.3384C43.4252 35.9578 43.2888 35.2038 43.6693 34.6548Z" fill="#111827" fill-opacity="0.8"/>
<path d="M55.6026 42.9304C55.9815 42.3801 56.735 42.241 57.2852 42.6199C59.0275 43.8194 59.1417 46.1925 57.9581 47.8035L57.9571 47.8025C56.6924 49.5261 54.7454 50.5143 52.7911 50.5144C51.7081 50.5144 50.6306 50.207 49.6934 49.5623L49.6886 49.5583L46.0841 47.0505C45.536 46.6689 45.401 45.9152 45.7823 45.3669C46.1639 44.8186 46.9185 44.6826 47.4669 45.0642L51.0645 47.5691C51.5758 47.9208 52.17 48.0955 52.7911 48.0955C53.938 48.0954 55.1767 47.5048 56.0079 46.3718C56.5451 45.6408 56.3179 44.8907 55.9132 44.6121C55.3633 44.2332 55.2243 43.4805 55.6026 42.9304Z" fill="#111827" fill-opacity="0.8"/>
<path d="M42.5015 43.0946C42.8815 42.5451 43.6346 42.407 44.1842 42.787L46.9107 44.6727L46.9127 44.6737L47.4722 45.0623L48.0435 45.4559C48.1428 45.5152 48.2304 45.5841 48.3062 45.6541C49.8136 46.891 49.8689 49.0821 48.7603 50.6063L48.7555 50.6121C47.6259 52.1451 45.8826 53.0222 44.1441 53.0223C43.1749 53.0223 42.2061 52.7495 41.3668 52.1668L41.3414 52.1493L41.317 52.1307L38.6842 50.0955C38.1556 49.687 38.058 48.9279 38.4664 48.3993C38.8748 47.8707 39.6341 47.7732 40.1627 48.1815L42.7555 50.1854C43.1582 50.4622 43.6346 50.6034 44.1441 50.6034C45.0787 50.6032 46.1097 50.1201 46.8033 49.1825C47.3021 48.4966 47.1142 47.7944 46.7584 47.5125C46.7482 47.5047 46.7363 47.4953 46.7242 47.4852L46.0982 47.0526L46.0953 47.0516L45.5328 46.661L42.8082 44.7772C42.2587 44.3973 42.1217 43.6441 42.5015 43.0946Z" fill="#111827" fill-opacity="0.8"/>
<path d="M42.8106 12.33C43.206 11.7916 43.9625 11.6758 44.501 12.0712L67.6367 29.0605L69.3408 30.2724C71.7824 31.9722 72.0128 35.3628 70.2647 37.7666C69.1264 39.328 67.3547 40.2245 65.5889 40.2246C64.6148 40.2246 63.6298 39.9537 62.7725 39.3632L62.7705 39.3623L61.1348 38.2314H61.1299L60.8184 38.0166L48.6602 29.5957C48.111 29.2153 47.9741 28.4613 48.3545 27.9121C48.7349 27.3628 49.4889 27.226 50.0381 27.6064L62.1426 35.9902C62.1575 35.9992 62.1701 36.0061 62.1787 36.0117C62.1907 36.0195 62.2011 36.0286 62.2119 36.0361L62.2129 36.0351L64.1465 37.372C64.5669 37.6612 65.064 37.8056 65.5889 37.8056C66.5495 37.8056 67.6075 37.3059 68.3096 36.3427C69.4202 34.8144 69.0759 33.0307 67.9512 32.2529L67.9443 32.249L67.9375 32.2441L66.2334 31.0312L66.2266 31.0263L66.2188 31.0205L43.0693 14.0205C42.5309 13.625 42.4151 12.8685 42.8106 12.33ZM60.6807 37.8964L60.6817 37.8974L60.6836 37.9003C60.6847 37.9014 60.6864 37.9022 60.6875 37.9033L60.6807 37.8964Z" fill="#111827" fill-opacity="0.8"/>
<path d="M43.5077 1.58452C45.6204 0.44055 48.1182 0.188801 50.4266 0.890187C54.9172 1.95321 58.3022 3.78727 61.6102 5.3189C64.9369 6.85918 68.3132 8.1658 73.0379 8.40776C73.705 8.44197 74.2183 9.01031 74.1844 9.6773C74.1502 10.3445 73.5811 10.8579 72.9139 10.8238C67.7467 10.5591 64.0468 9.11308 60.5936 7.51421C57.1298 5.91046 54.039 4.22539 49.8387 3.23589L49.7977 3.22612L49.7577 3.21441C48.0575 2.6878 46.2128 2.87009 44.659 3.71148L41.4217 5.46441L41.4207 5.46343L33.8055 9.59331L29.5409 20.9722L29.537 20.9986C29.5378 21.0077 29.5408 21.0195 29.5477 21.0318C29.5547 21.044 29.5641 21.0535 29.5731 21.0601L29.6102 21.0757L29.62 21.0777C30.7844 21.3076 31.8316 21.3006 32.7918 21.0123C33.7439 20.7263 34.6952 20.1381 35.6356 19.0718L35.6366 19.0709C36.2756 18.3489 36.7779 17.4894 37.162 16.5503L37.9793 14.3023L38.2166 13.647L38.9032 13.524C41.8935 12.9899 43.1906 12.0661 44.868 10.814C45.4034 10.4145 46.1608 10.5248 46.5604 11.0601C46.96 11.5954 46.8504 12.3528 46.3153 12.7525C44.6225 14.0161 43.0724 15.1163 40.0194 15.7691L39.4188 17.4253L39.41 17.4468C38.9429 18.5943 38.3059 19.7063 37.4491 20.6744L37.4481 20.6734C36.2502 22.0312 34.9276 22.8973 33.4881 23.3296C32.0564 23.7596 30.5939 23.7357 29.1512 23.4507C27.6333 23.1579 26.7396 21.5757 27.2713 20.1343L27.2733 20.1285L31.5506 8.71831L31.5545 8.70659L31.5584 8.69585C31.7618 8.18383 32.1389 7.74566 32.6434 7.47319L43.5077 1.58452Z" fill="#337AFF"/>
<path d="M80.5361 3.96089C81.1962 3.8586 81.8145 4.31058 81.9169 4.97065C82.0193 5.63085 81.5664 6.24914 80.9062 6.35151L74.9081 7.28218H74.9062C74.2997 7.37549 73.9321 7.91231 74.0175 8.44429L78.0722 33.4062L78.0732 33.4072C78.1584 33.9348 78.6849 34.3501 79.3085 34.2568L85.3075 33.3271C85.9677 33.2248 86.586 33.6767 86.6884 34.3369C86.7907 34.997 86.3378 35.6154 85.6777 35.7177L79.6796 36.6474L79.6767 36.6484C77.7971 36.935 75.9913 35.69 75.6845 33.7939L71.6288 8.83003V8.82808C71.3224 6.91903 72.6575 5.18108 74.538 4.89155L80.5361 3.96089Z" fill="#337AFF"/>
</svg>
