<svg width="512" height="473" viewBox="0 0 512 473" fill="none" xmlns="http://www.w3.org/2000/svg">
<path opacity="0.2" d="M203.655 170.264L144.458 130.803C140.551 128.199 139.502 122.916 142.118 119.016L218.798 4.71597C222.529 -0.844397 230.928 -0.0960623 233.614 6.03783L269.378 79.0526C270.748 81.8481 270.528 85.1589 268.803 87.7505L215.421 167.908C212.824 171.811 207.553 172.866 203.653 170.267L203.655 170.264Z" fill="#00A42F"/>
<path opacity="0.2" d="M186.388 345.425L186.346 416.567C186.343 421.262 182.528 425.062 177.833 425.047L40.1941 424.564C33.499 424.541 29.4675 417.134 33.0819 411.499L78.4113 340.838C79.9724 338.406 82.6621 336.935 85.5527 336.935H177.902C182.589 336.935 186.389 340.737 186.386 345.425H186.388Z" fill="#FF7F00"/>
<path opacity="0.2" d="M343.522 282.624L402.573 242.946C406.471 240.326 411.754 241.371 414.36 245.276L490.789 359.746C494.507 365.314 490.612 372.794 483.917 372.94L399.987 374.771C397.098 374.833 394.375 373.421 392.763 371.024L341.214 294.401C338.598 290.512 339.631 285.237 343.522 282.623V282.624Z" fill="#337AFF"/>
<path d="M411.528 130.885C412.025 133.37 414.509 138.836 416 142.811C416.497 146.787 415.006 147.781 410.534 150.266C409.043 150.762 406.558 151.259 404.57 151.756C394.135 157.223 382.705 162.192 372.767 168.652C360.84 176.106 356.368 190.02 352.889 203.438C352.392 207.91 352.392 212.879 352.392 217.849C352.889 226.297 354.877 235.242 360.343 243.193C364.319 249.156 371.773 254.125 380.221 257.604C388.172 261.082 396.123 264.064 404.074 264.561C411.528 264.561 417.988 262.076 424.448 265.555C434.884 269.033 438.859 282.947 434.884 294.377C432.399 304.316 421.466 310.279 410.037 312.764C388.172 319.224 364.816 316.242 342.95 307.794C340.466 307.297 337.981 306.303 335.496 305.309C332.018 303.322 328.042 300.837 323.57 297.358C303.692 281.457 293.754 258.598 291.269 235.242C290.772 232.757 290.275 231.266 290.275 228.781C288.784 200.953 299.717 169.646 321.085 149.272C330.527 138.836 343.944 131.879 358.355 127.406C373.76 123.928 389.165 123.431 401.092 125.419C405.564 125.916 409.043 127.406 409.54 127.406C409.54 128.897 409.54 128.4 411.528 130.885ZM510.915 291.395C510.915 293.88 511.412 297.358 511.909 300.837C512.406 304.316 510.915 306.8 506.442 310.279C504.455 310.776 501.97 311.273 497.497 311.273C493.522 311.77 488.553 312.267 486.565 312.267H475.632C472.154 312.267 469.172 311.273 467.184 311.273C459.73 311.273 458.736 304.813 458.24 297.358C457.743 292.886 457.743 287.42 457.246 282.947C457.246 274.996 456.749 267.045 455.258 257.107C454.761 252.634 453.27 246.174 445.319 244.186H436.871C430.908 243.689 425.442 241.702 418.982 240.211C415.503 239.714 413.515 238.72 411.528 238.72C411.528 238.223 412.025 237.229 410.534 234.745C408.546 230.272 409.043 224.309 409.043 219.837C408.546 217.352 408.546 212.382 408.546 209.898C408.546 209.401 409.043 207.91 409.043 205.425C409.043 203.438 410.534 203.935 414.509 202.444C418.982 201.947 423.454 201.45 428.423 201.45C434.387 200.953 440.35 201.45 447.804 200.953C453.767 200.953 458.736 201.45 468.178 199.959C472.651 199.462 477.62 197.474 483.086 196.977C488.553 194.99 495.51 193.996 500.976 199.959C501.473 201.45 501.473 203.935 502.964 206.419C508.927 235.738 510.418 262.076 510.915 291.395Z" fill="#111827"/>
<path d="M135.379 87.7187C135.907 94.5825 137.491 101.446 136.963 107.782C136.435 114.646 134.851 119.926 129.043 124.678C119.011 131.542 103.7 134.71 90.4999 136.294C84.692 136.822 80.4681 136.822 78.8841 144.741C77.8282 150.021 78.3562 154.773 80.4681 158.997C82.5801 161.637 87.332 164.277 91.0279 164.805C95.7798 165.333 100.004 164.805 102.116 164.805C107.923 164.805 114.787 162.165 120.595 162.165C126.403 161.637 131.155 163.221 133.267 167.445C134.851 174.309 138.019 186.98 135.379 191.204C122.707 200.18 109.507 202.82 94.1958 205.46C89.4439 205.988 79.4121 207.044 78.8841 216.02C78.3562 220.244 78.8842 229.219 85.748 230.803C89.9719 231.331 100.004 233.443 104.756 233.443H125.875C130.627 233.443 136.963 232.387 141.187 233.971C144.883 236.083 144.883 237.667 145.411 243.475C145.939 249.811 148.051 255.619 148.051 261.427C148.579 267.235 150.163 275.154 146.467 277.266C143.827 279.378 136.435 279.906 130.627 281.49C125.875 283.074 120.595 282.546 114.787 284.13C102.644 286.242 88.9159 286.77 77.8282 286.77C65.1565 286.242 53.0127 284.658 40.341 282.018C35.5891 281.49 29.2533 280.434 24.5014 278.85C17.6375 277.266 14.4696 276.738 10.2457 272.514C8.13377 268.819 6.5498 262.483 6.5498 255.619C6.5498 247.699 8.13377 240.307 8.13377 236.083C8.66176 219.188 10.2457 200.18 10.2457 181.7C10.2457 165.333 9.71773 148.437 9.18974 131.014C9.18974 122.566 8.66176 114.646 8.66176 105.67C8.13377 97.7504 6.5498 88.7746 7.07779 84.0227C8.66176 76.1029 14.4696 73.991 24.5014 73.463C54.0687 72.935 87.8599 70.2951 117.955 65.5432C127.987 63.4312 131.155 67.1271 133.267 75.0469C133.795 78.7428 133.795 83.4947 135.379 87.7187Z" fill="#111827"/>
<path d="M244.784 133.839C247.088 136.143 247.664 141.904 249.392 144.208C249.968 151.696 251.696 167.825 251.696 175.314C252.272 181.65 252.848 186.835 249.968 189.139C247.088 191.443 241.904 191.443 234.991 192.019C228.079 192.595 221.166 194.323 214.83 202.964C212.526 213.908 213.678 224.277 224.623 229.461C240.752 236.374 255.152 239.83 268.977 248.471C283.378 257.111 292.595 273.24 297.779 289.369C301.811 300.314 301.811 312.987 301.235 326.236C301.235 357.918 280.498 384.415 251.12 395.936C245.936 398.24 240.175 399.968 234.991 401.696C224.046 404.001 214.83 404.001 203.309 403.425C192.364 402.849 176.235 397.664 166.443 393.632C160.106 390.176 153.194 384.991 146.858 378.655C142.249 373.471 138.217 365.406 133.609 356.766C131.881 355.037 135.337 348.701 137.641 344.093C142.249 337.756 146.281 330.268 150.314 323.355C152.042 320.475 153.77 318.747 156.65 319.323C161.258 319.899 165.291 323.355 170.475 330.268C176.811 333.148 183.724 336.028 190.636 337.756C199.853 339.484 210.798 338.908 217.134 329.692C225.775 321.051 224.623 307.802 221.742 298.01C214.254 281.881 198.125 275.544 184.3 268.056C163.563 254.807 149.162 231.19 149.162 206.42C149.738 199.508 149.162 185.683 153.194 180.498C161.834 163.793 173.931 152.849 184.876 146.512C193.517 143.632 205.613 139.024 215.406 136.143C220.59 134.415 225.199 134.415 229.807 132.687C233.839 132.111 239.023 131.535 241.328 131.535C243.056 131.535 244.208 132.111 244.784 133.839Z" fill="#111827"/>
<path opacity="0.95" d="M45.1284 262.428C37.8475 273.342 9.86313 315.292 1.42597 327.94C-0.0952369 330.22 -0.420333 333.092 0.551889 335.655L32.1215 418.932C34.5858 425.434 43.3971 426.372 47.1771 420.536L121.187 306.235C122.046 304.909 123.792 304.487 125.16 305.275L136.108 311.575C142.748 315.395 150.65 309.156 148.475 301.811L126.128 226.334C124.9 222.184 120.745 219.625 116.487 220.393L34.4677 235.186C26.7405 236.58 24.8866 246.819 31.6384 250.829C35.4169 253.073 39.6309 255.56 44.1608 258.222C45.6329 259.087 46.0761 261.008 45.1299 262.428H45.1284Z" fill="#FF7F00"/>
<path opacity="0.95" d="M353.766 445.833L432.511 445.525C435.251 445.514 437.818 444.18 439.402 441.944L490.875 369.267C494.894 363.592 490.754 355.757 483.801 355.88L347.653 358.275C346.074 358.303 344.749 357.09 344.638 355.513L343.754 342.913C343.217 335.271 333.63 332.197 328.75 338.101L278.599 398.774C275.842 402.109 276.037 406.986 279.052 410.09L337.109 469.884C342.581 475.518 352.109 471.338 351.668 463.497C351.421 459.112 351.133 454.226 350.812 448.983C350.708 447.279 352.057 445.838 353.764 445.832L353.766 445.833Z" fill="#337AFF"/>
<path opacity="0.95" d="M353.563 94.6726C348.13 82.7299 327.247 36.83 320.951 22.9904C319.816 20.4955 317.548 18.7059 314.858 18.1799L227.455 1.08478C220.631 -0.249337 215.186 6.74023 218.153 13.0305L276.233 136.191C276.906 137.621 276.345 139.326 274.953 140.074L263.827 146.053C257.08 149.68 258.213 159.683 265.6 161.71L341.513 182.528C345.686 183.672 350.053 181.493 351.646 177.469L382.333 99.9815C385.225 92.6791 377.501 85.7064 370.531 89.3285C366.633 91.3542 362.298 93.6237 357.648 96.0681C356.138 96.8624 354.27 96.226 353.563 94.6726Z" fill="#00A42F"/>
</svg>
