<svg width="231" height="264" viewBox="0 0 231 264" fill="none" xmlns="http://www.w3.org/2000/svg">
<path d="M100.093 100.5C100.093 100.5 62.5229 103.42 31.8029 141.4C4.98294 174.55 -1.52706 193.12 1.50294 213.82C4.06294 231.32 20.5829 242.03 51.4329 241.13C82.2829 240.23 130.233 224.18 130.233 224.18L144.963 187.61L135.293 137.49L125.163 122.59L116.643 108.62L100.093 100.5Z" fill="#447AE6"/>
<path d="M131.463 100.5C131.463 100.5 169.033 103.42 199.753 141.4C226.573 174.56 233.083 193.12 230.053 213.83C227.493 231.33 210.973 242.04 180.123 241.14C149.273 240.24 101.323 224.19 101.323 224.19L86.5929 187.62L96.2629 137.5L106.393 122.6L114.913 108.63L131.463 100.51V100.5Z" fill="#447AE6"/>
<path d="M199.753 141.4C169.033 103.42 131.463 100.5 131.463 100.5L115.773 108.2L100.083 100.5C100.083 100.5 62.5129 103.42 31.7929 141.4C4.98294 174.55 -1.52706 193.12 1.50294 213.82C4.06294 231.32 20.5829 242.03 51.4329 241.13C71.6329 240.54 99.1829 233.45 115.783 228.63C132.383 233.45 159.923 240.54 180.133 241.13C210.983 242.03 227.503 231.32 230.063 213.82C233.093 193.11 226.593 174.55 199.763 141.39L199.753 141.4Z" fill="url(#paint0_linear_4_7783)" style="mix-blend-mode:multiply"/>
<path d="M146.093 72.2502C162.616 55.7271 162.616 28.9379 146.093 12.4148C129.57 -4.10831 102.781 -4.10831 86.2577 12.4148C69.7346 28.9379 69.7346 55.7271 86.2577 72.2502C102.781 88.7732 129.57 88.7732 146.093 72.2502Z" fill="#111827"/>
<path d="M148.513 47.6895C145.793 38.8795 139.563 31.6195 131.473 27.4995C131.143 25.9095 130.443 24.3595 129.523 23.0195C126.073 17.9695 119.873 15.5595 113.873 15.9795C111.863 16.1195 109.713 16.6595 107.823 17.3595C105.333 18.2895 102.993 19.8995 101.713 22.2295C100.813 23.8595 100.533 25.7295 100.713 27.5795C92.6929 31.7095 86.5229 38.9395 83.8229 47.6895C77.6329 48.7995 72.9329 54.1895 72.9329 60.6995C72.9329 68.0095 78.8529 73.9295 86.1629 73.9295C86.2629 73.9295 86.3629 73.9195 86.4629 73.9095C90.2929 80.8995 96.5129 86.3495 104.023 89.2495V102.51H128.303V89.2495C135.813 86.3595 142.043 80.8995 145.863 73.9095C145.963 73.9095 146.063 73.9295 146.163 73.9295C153.473 73.9295 159.393 68.0095 159.393 60.6995C159.393 54.1895 154.693 48.7995 148.503 47.6895H148.513Z" fill="#FDCBCC"/>
<path d="M148.513 47.6895C145.793 38.8795 139.563 31.6195 131.473 27.4995C131.143 25.9095 130.443 24.3595 129.523 23.0195C126.073 17.9695 119.873 15.5595 113.873 15.9795C111.863 16.1195 109.713 16.6595 107.823 17.3595C105.333 18.2895 102.993 19.8995 101.713 22.2295C100.813 23.8595 100.533 25.7295 100.713 27.5795C92.6929 31.7095 86.5229 38.9395 83.8229 47.6895C77.6329 48.7995 72.9329 54.1895 72.9329 60.6995C72.9329 68.0095 78.8529 73.9295 86.1629 73.9295C86.2629 73.9295 86.3629 73.9195 86.4629 73.9095C90.2929 80.8995 96.5129 86.3495 104.023 89.2495V102.51H128.303V89.2495C135.813 86.3595 142.043 80.8995 145.863 73.9095C145.963 73.9095 146.063 73.9295 146.163 73.9295C153.473 73.9295 159.393 68.0095 159.393 60.6995C159.393 54.1895 154.693 48.7995 148.503 47.6895H148.513Z" fill="url(#paint1_linear_4_7783)" style="mix-blend-mode:multiply"/>
<path d="M116.193 13.8895H116.153C100.193 14.7395 83.1029 33.9195 77.2129 50.8295C78.8429 50.3095 82.0229 49.2995 82.0229 49.2995C89.8629 49.7195 95.9829 42.9795 99.5629 36.9295C101.353 33.9195 102.323 30.5095 104.233 27.5595C105.173 26.0995 106.333 24.7195 107.873 23.8495C108.323 23.5895 108.803 23.3895 109.293 23.2295C109.803 23.0695 110.333 22.9495 110.873 22.8795C111.423 22.8095 111.973 22.7895 112.523 22.8095C113.073 22.8295 113.613 22.8995 114.143 23.0195C114.663 23.1295 115.163 23.2895 115.653 23.5095C115.763 23.5595 115.873 23.6095 115.983 23.6695C116.053 23.7095 116.103 23.7495 116.153 23.7895V23.8195C116.153 23.8195 116.173 23.8095 116.173 23.7995C116.173 23.7995 116.193 23.8095 116.193 23.8195V23.7895C116.243 23.7495 116.303 23.7095 116.363 23.6695C116.473 23.6095 116.583 23.5595 116.693 23.5095C117.173 23.2895 117.683 23.1295 118.203 23.0195C118.733 22.8995 119.283 22.8395 119.823 22.8095C120.373 22.7895 120.923 22.8095 121.473 22.8795C122.013 22.9495 122.543 23.0595 123.053 23.2295C123.543 23.3895 124.023 23.5895 124.473 23.8495C126.013 24.7295 127.173 26.0995 128.113 27.5595C130.023 30.5095 130.993 33.9195 132.783 36.9295C136.373 42.9795 142.483 49.7195 150.323 49.2995C150.323 49.2995 153.503 50.3095 155.133 50.8295C149.253 33.9195 132.153 14.7495 116.193 13.8995V13.8895Z" fill="#111827"/>
<path d="M109.093 52.2895C109.093 54.3995 107.913 56.1095 106.463 56.1095C105.013 56.1095 103.833 54.3995 103.833 52.2895C103.833 50.1795 105.013 48.4695 106.463 48.4695C107.913 48.4695 109.093 50.1795 109.093 52.2895Z" fill="#111827"/>
<path d="M128.513 52.2895C128.513 54.3995 127.333 56.1095 125.883 56.1095C124.433 56.1095 123.253 54.3995 123.253 52.2895C123.253 50.1795 124.433 48.4695 125.883 48.4695C127.333 48.4695 128.513 50.1795 128.513 52.2895Z" fill="#111827"/>
<path d="M116.193 71.0095C112.993 71.0095 110.203 69.6795 108.713 67.4395C108.393 66.9695 108.523 66.3295 109.003 66.0095C109.473 65.6895 110.123 65.8195 110.433 66.2995C111.523 67.9395 113.723 68.9495 116.193 68.9495H116.223C118.663 68.9495 120.843 67.9295 121.913 66.2995C122.223 65.8195 122.863 65.6895 123.343 65.9995C123.823 66.3095 123.953 66.9496 123.643 67.4296C122.183 69.6596 119.413 70.9995 116.233 71.0095H116.193Z" fill="#F1758D"/>
<path d="M98.2429 100.63L103.993 93.6695L115.923 101.08L128.233 93.4296L136.463 101.52L121.913 112.81L111.703 115.07L98.4829 111.8L91.3729 107.29" fill="#447AE6"/>
<path d="M111.593 116.97L102.063 210.9C102.033 211.21 102.103 211.53 102.263 211.81L114.813 233.53C115.473 234.67 117.243 234.67 117.903 233.53L130.453 211.81C130.613 211.53 130.683 211.22 130.653 210.9L121.123 116.97C121.043 116.14 120.283 115.51 119.383 115.51H113.333C112.433 115.51 111.673 116.14 111.593 116.97Z" fill="#133D7D"/>
<path d="M122.663 109.81L116.383 103.61C116.383 103.61 116.343 103.6 116.333 103.61L110.053 109.81C109.133 110.72 108.853 111.89 109.303 112.97L111.553 118.4H121.163L123.413 112.97C123.863 111.89 123.583 110.72 122.663 109.81Z" fill="#133D7D"/>
<path d="M50.0029 171.01H182.733C184.633 171.01 186.173 172.55 186.173 174.45V258.15C186.173 261.34 183.583 263.92 180.403 263.92H52.3329C49.1429 263.92 46.5629 261.33 46.5629 258.15V174.45C46.5629 172.55 48.1029 171.01 50.0029 171.01Z" fill="#F0F0F0"/>
<path d="M186.163 171.01H46.5629V187.4H186.163V171.01Z" fill="#76B0FD"/>
<path d="M109.132 245.001L89.7329 225.602L98.7857 216.549L109.132 226.895L132.78 203.216L141.832 212.269L109.132 245.001Z" fill="#76B0FD"/>
<path d="M52.2229 221.31C53.3729 219.58 53.5729 216.97 52.3629 215.3C51.7329 214.42 50.8229 213.9 49.8629 213.55C50.7829 213.06 51.6129 212.38 52.2229 211.46C53.3729 209.73 53.5729 207.12 52.3629 205.45C51.5129 204.26 50.1429 203.71 48.8229 203.38C46.1629 202.71 43.4029 202.68 40.6929 202.81C38.1829 202.92 35.4429 203.33 33.5929 205.46C31.4029 207.98 30.7929 213.1 30.6229 216.52C30.3429 222.27 30.6529 228.13 31.5729 233.8C32.2729 238.09 33.4929 242.33 37.4629 243.89C39.7829 244.8 42.9829 245.25 45.4129 244.86C47.8729 244.47 50.6329 243.94 52.2229 241.55C53.3729 239.82 53.5729 237.22 52.3629 235.54C51.6629 234.57 50.6229 234.03 49.5429 233.68C50.5929 233.18 51.5429 232.47 52.2229 231.44C53.3729 229.71 53.5729 227.1 52.3629 225.43C51.6629 224.46 50.6229 223.92 49.5429 223.57C50.5929 223.07 51.5429 222.36 52.2229 221.33V221.31Z" fill="#FDCBCC"/>
<path d="M180.293 221.31C179.143 219.58 178.943 216.97 180.153 215.3C180.783 214.42 181.693 213.9 182.653 213.55C181.733 213.06 180.903 212.38 180.293 211.46C179.143 209.73 178.943 207.12 180.153 205.45C181.003 204.26 182.373 203.71 183.693 203.38C186.353 202.71 189.113 202.68 191.823 202.81C194.333 202.92 197.073 203.33 198.923 205.46C201.113 207.98 201.723 213.1 201.893 216.52C202.173 222.27 201.863 228.13 200.943 233.8C200.243 238.09 199.023 242.33 195.053 243.89C192.733 244.8 189.533 245.25 187.103 244.86C184.643 244.47 181.883 243.94 180.293 241.55C179.143 239.82 178.943 237.22 180.153 235.54C180.853 234.57 181.893 234.03 182.973 233.68C181.923 233.18 180.973 232.47 180.293 231.44C179.143 229.71 178.943 227.1 180.153 225.43C180.853 224.46 181.893 223.92 182.973 223.57C181.923 223.07 180.973 222.36 180.293 221.33V221.31Z" fill="#FDCBCC"/>
<defs>
<linearGradient id="paint0_linear_4_7783" x1="115.783" y1="150.07" x2="115.783" y2="343.844" gradientUnits="userSpaceOnUse">
<stop stop-color="white"/>
<stop offset="1" stop-color="#84A6E5"/>
</linearGradient>
<linearGradient id="paint1_linear_4_7783" x1="118.017" y1="55.4887" x2="120.392" y2="-10.4828" gradientUnits="userSpaceOnUse">
<stop stop-color="white"/>
<stop offset="1" stop-color="#FFE1B8"/>
</linearGradient>
</defs>
</svg>
