<svg width="167" height="27" viewBox="0 0 167 27" fill="none" xmlns="http://www.w3.org/2000/svg">
<path d="M166.127 12.4314C166.247 13.212 166.097 14.9233 166.097 14.9233C165.406 21.108 161.623 24.8008 155.229 24.8008C148.473 24.8008 143.7 19.9971 143.7 13.182C143.7 6.36681 148.473 1.5932 155.229 1.5932C162.434 1.5932 165.046 7.05733 165.046 7.05733L161.233 9.18895C161.233 9.18895 159.492 5.5562 155.198 5.5562C150.935 5.5562 148.263 8.49842 148.263 13.182C148.263 17.8955 150.935 20.8378 155.198 20.8378C157.961 20.8378 161.443 19.6068 161.533 16.0341H155.799V12.4314H166.127Z" fill="#111827"/>
<path d="M128.271 17.9856C129.622 19.6068 131.664 20.7777 133.225 20.8077C135.687 20.8378 137.428 19.6068 137.458 17.8355C137.518 13.9926 125.539 16.1842 125.689 8.10814C125.749 4.29525 129.112 1.68328 133.855 1.77334C136.497 1.83339 139.499 3.27448 141.181 5.34605L137.848 7.98804C136.767 6.63702 135.086 5.6763 133.795 5.64627C131.724 5.61625 130.252 6.66705 130.252 8.1982C130.162 12.0111 142.141 10.4199 142.021 17.9256C141.961 21.9786 138.299 24.7707 133.165 24.6807C130.222 24.6206 126.8 22.9694 124.848 20.6576L128.271 17.9856Z" fill="#111827"/>
<path d="M122.363 1.80336V5.70631H110.204V10.9002H120.772V14.8032H110.204V20.6576H122.363V24.5606H105.64V1.80336H122.363Z" fill="#111827"/>
<path d="M88.8757 11.5722V19.7011H97.9017V22.5883H73.8512V19.7011H79.5975V11.5722H82.8771V19.7292H85.5681V11.5722H88.8757ZM93.3046 17.3746H89.8288C90.5856 13.2821 90.95 9.02138 91.0061 5.48949H77.3551V2.51822H94.4539C94.3978 7.36756 93.9493 13.0578 93.3046 17.3746Z" fill="#111827"/>
<path d="M67.5835 0.5H71.0593V26.4846H67.5835V0.5ZM60.8 11.9085C62.5099 14.3192 64.5561 16.4495 67.135 18.1594L64.7243 20.6542C62.4258 18.9723 60.6038 17.0102 58.95 14.7397C56.9878 17.4306 54.465 19.7572 51.718 21.411L49.3634 19.1405C55.8666 15.3844 59.2023 9.38577 59.5386 5.62964C57.7166 5.6857 55.8946 5.6857 54.1006 5.6857H51.1574V2.71444H55.5583C57.8848 2.71444 60.3235 2.6864 63.4629 2.65837C63.4069 5.79783 62.4258 8.99334 60.8 11.9085Z" fill="#111827"/>
<path d="M29.5288 13.3662H31.519C35.3031 13.3662 38.2744 12.8896 41.2737 12.2169V15.076C38.2183 15.8329 34.7145 16.2253 30.65 16.2253H26.081V7.33952H34.266V4.53644H26.053V1.70533H37.7138V10.1426H29.5288V13.3662ZM49.3466 10.507H45.4503V20.3178H42.0025V0.5H45.4503V7.53574H49.3466V10.507ZM45.9829 25.98H29.5007V18.72H33.0046V23.0368H45.9829V25.98Z" fill="#111827"/>
<path d="M18.72 0.5H22.1959V26.4846H18.72V0.5ZM11.9366 11.9085C13.6465 14.3192 15.6927 16.4495 18.2715 18.1594L15.8609 20.6542C13.5624 18.9723 11.7404 17.0102 10.0865 14.7397C8.12439 17.4306 5.60161 19.7572 2.85459 21.411L0.5 19.1405C7.00315 15.3844 10.3388 9.38577 10.6752 5.62964C8.85319 5.6857 7.03118 5.6857 5.23721 5.6857H2.29397V2.71444H6.69481C9.02137 2.71444 11.4601 2.6864 14.5995 2.65837C14.5434 5.79783 13.5624 8.99334 11.9366 11.9085Z" fill="#111827"/>
</svg>
