<svg width="37" height="41" viewBox="0 0 37 41" fill="none" xmlns="http://www.w3.org/2000/svg">
<path d="M34.8656 14.5H26.5322C25.4272 14.5 24.3673 14.061 23.5859 13.2796C22.8045 12.4981 22.3656 11.4384 22.3656 10.3333V2M34.8656 14.5V31.1667C34.8656 33.3768 33.9876 35.4964 32.4248 37.0592C30.862 38.622 28.7424 39.5 26.5322 39.5H9.86556C7.65542 39.5 5.5358 38.622 3.973 37.0592C2.41019 35.4964 1.53223 33.3768 1.53223 31.1667V10.3333C1.53223 8.1232 2.41019 6.00357 3.973 4.44077C5.5358 2.87797 7.65542 2 9.86556 2H22.3656M34.8656 14.5L22.3656 2M12.9697 24.2041L17.1572 28.3708L23.5859 21.2081" stroke="#111827" stroke-width="3" stroke-linecap="round"/>
</svg>
