<svg width="42" height="41" viewBox="0 0 42 41" fill="none" xmlns="http://www.w3.org/2000/svg">
<path d="M23.0067 13.9999H29.2567M11.965 13.7916L13.84 15.6666L16.7567 12.3332M11.965 24.6249L13.84 26.4999L16.7567 23.1666M39.6733 38.9999L35.4543 34.7809M16.7567 39H12.59C6.83704 39 2.17334 34.3363 2.17334 28.5833V11.9167C2.17334 6.1637 6.83704 1.5 12.59 1.5H29.2567C35.0096 1.5 39.6733 6.1637 39.6733 11.9167V16.0833M37.59 29.6249C37.59 33.652 34.3254 36.9165 30.2983 36.9165C26.2713 36.9165 23.0067 33.652 23.0067 29.6249C23.0067 25.5978 26.2713 22.3332 30.2983 22.3332C34.3254 22.3332 37.59 25.5978 37.59 29.6249Z" stroke="#111827" stroke-width="3" stroke-linecap="round"/>
</svg>
