<svg width="42" height="41" viewBox="0 0 42 41" fill="none" xmlns="http://www.w3.org/2000/svg">
<path d="M20.7605 2L20.7677 0.5H20.7605V2ZM30.0704 5.87378L29.011 6.93565L29.011 6.93565L30.0704 5.87378ZM33.953 15.1624L35.4531 15.1624L35.453 15.1551L33.953 15.1624ZM32.4959 27.3041C32.4999 28.1326 33.1748 28.8008 34.0032 28.7968C34.8316 28.7927 35.4999 28.1178 35.4958 27.2894L33.9958 27.2968L32.4959 27.3041ZM33.953 18.5705L32.453 18.5705L32.4531 18.5779L33.953 18.5705ZM36.7479 18.5706L36.7479 20.0707L36.7597 20.0706L36.7479 18.5706ZM38.7002 19.3553L37.6532 20.4294L37.6532 20.4294L38.7002 19.3553ZM39.532 21.2843H41.032C41.032 21.2765 41.0319 21.2688 41.0318 21.261L39.532 21.2843ZM38.7228 30.7654L37.6634 29.7036L37.6634 29.7036L38.7228 30.7654ZM36.9271 31.5728L36.9264 33.0728H36.9271V31.5728ZM34.8158 30.7654L33.7563 31.8273L33.7563 31.8273L34.8158 30.7654ZM35.1672 37.923L34.1077 36.8612L35.1672 37.923ZM20.7713 38.0001C19.9428 38.0001 19.2713 38.6717 19.2713 39.5001C19.2713 40.3285 19.9428 41.0001 20.7713 41.0001V39.5001V38.0001ZM33.9638 17.0706C33.1354 17.0706 32.4638 17.7422 32.4638 18.5706C32.4638 19.399 33.1354 20.0706 33.9638 20.0706L33.9638 18.5706L33.9638 17.0706ZM35.5066 27.2968C35.5066 26.4684 34.835 25.7968 34.0066 25.7968C33.1782 25.7968 32.5066 26.4684 32.5066 27.2968H34.0066H35.5066ZM4.78413 18.4697L4.77235 19.9697L4.78413 19.9697L4.78413 18.4697ZM2.83178 19.2543L1.7848 18.1801L1.7848 18.1801L2.83178 19.2543ZM2 21.1833L0.50018 21.1601C0.50006 21.1678 0.5 21.1756 0.5 21.1833L2 21.1833ZM2.80918 30.6645L1.74973 31.7263L1.74973 31.7263L2.80918 30.6645ZM4.60491 31.4718L4.60491 32.9718L4.60559 32.9718L4.60491 31.4718ZM6.71624 30.6645L5.65679 29.6026L5.65679 29.6026L6.71624 30.6645ZM9.02541 28.7154C9.02541 27.887 8.35384 27.2154 7.52541 27.2154C6.69699 27.2154 6.02541 27.887 6.02541 28.7154H7.52541H9.02541ZM4.78411 31.4717L4.78478 32.9718L4.79569 32.9717L4.78411 31.4717ZM6.06811 28.7154C6.06811 29.5438 6.73968 30.2154 7.56811 30.2154C8.39653 30.2154 9.06811 29.5438 9.06811 28.7154H7.56811H6.06811ZM7.56811 15.1624H9.06811C9.06811 12.0704 10.2991 9.10444 12.4915 6.91706L11.432 5.85519L10.3726 4.79333C7.61683 7.5428 6.06811 11.2726 6.06811 15.1624H7.56811ZM11.432 5.85519L12.4915 6.91706C14.684 4.72956 17.6584 3.5 20.7605 3.5V2V0.5C16.8649 0.5 13.1282 2.04397 10.3726 4.79333L11.432 5.85519ZM20.7605 2L20.7533 3.49998C23.8527 3.51493 26.8204 4.75003 29.011 6.93565L30.0704 5.87378L31.1299 4.81191C28.3797 2.06796 24.6556 0.518772 20.7677 0.500017L20.7605 2ZM30.0704 5.87378L29.011 6.93565C31.2015 9.12116 32.4381 12.0804 32.4531 15.1697L33.953 15.1624L35.453 15.1551C35.4342 11.2731 33.8802 7.55597 31.1299 4.81191L30.0704 5.87378ZM33.9958 27.2968L35.4958 27.2894L35.453 18.5632L33.953 18.5705L32.4531 18.5779L32.4959 27.3041L33.9958 27.2968ZM33.953 15.1624H32.453V18.5705H33.953H35.453V15.1624H33.953ZM36.7479 18.5706L36.7597 20.0706C37.094 20.0679 37.4151 20.1973 37.6532 20.4294L38.7002 19.3553L39.7472 18.2811C38.9423 17.4965 37.8599 17.0618 36.7361 17.0707L36.7479 18.5706ZM38.7002 19.3553L37.6532 20.4294C37.8912 20.6614 38.0271 20.9771 38.0322 21.3076L39.532 21.2843L41.0318 21.261C41.0144 20.1368 40.5522 19.0657 39.7472 18.2811L38.7002 19.3553ZM39.532 21.2843H38.032V28.8164H39.532H41.032V21.2843H39.532ZM39.532 28.8164H38.032C38.032 29.1485 37.8998 29.4677 37.6634 29.7036L38.7228 30.7654L39.7823 31.8273C40.5821 31.0293 41.032 29.9463 41.032 28.8164H39.532ZM38.7228 30.7654L37.6634 29.7036C37.3514 30.0148 37.1678 30.0728 36.9271 30.0728V31.5728V33.0728C38.1518 33.0728 39.058 32.5499 39.7823 31.8273L38.7228 30.7654ZM34.8158 30.7654L35.8752 29.7036C35.6388 29.4677 35.5066 29.1485 35.5066 28.8164H34.0066H32.5066C32.5066 29.9463 32.9565 31.0293 33.7563 31.8273L34.8158 30.7654ZM36.7479 34.1155H35.2479C35.2479 35.1447 34.8381 36.1324 34.1077 36.8612L35.1672 37.923L36.2266 38.9849C37.5204 37.694 38.2479 35.9425 38.2479 34.1155H36.7479ZM35.1672 37.923L34.1077 36.8612C33.3772 37.59 32.3856 38.0001 31.3509 38.0001V39.5001V41.0001C33.179 41.0001 34.9329 40.2757 36.2266 38.9849L35.1672 37.923ZM31.3509 39.5001V38.0001H20.7713V39.5001V41.0001H31.3509V39.5001ZM36.9271 31.5728L36.9277 30.0728L36.7485 30.0727L36.7479 31.5727L36.7472 33.0727L36.9264 33.0728L36.9271 31.5728ZM36.7479 31.5727L36.7595 30.0727C36.427 30.0702 36.1094 29.9373 35.8752 29.7036L34.8158 30.7654L33.7563 31.8273C34.5482 32.6174 35.6188 33.064 36.7363 33.0726L36.7479 31.5727ZM33.9638 18.5706L33.9638 20.0706L36.7479 20.0706L36.7479 18.5706L36.7479 17.0706L33.9638 17.0706L33.9638 18.5706ZM36.7479 31.5727H35.2479V34.1155H36.7479H38.2479V31.5727H36.7479ZM34.0066 28.8164H35.5066V27.2968H34.0066H32.5066V28.8164H34.0066ZM7.56811 18.4697H9.06811V15.1624H7.56811H6.06811V18.4697H7.56811ZM4.78413 18.4697L4.79591 16.9697C3.67211 16.9609 2.58971 17.3956 1.7848 18.1801L2.83178 19.2543L3.87877 20.3285C4.11689 20.0964 4.43803 19.967 4.77235 19.9696L4.78413 18.4697ZM2.83178 19.2543L1.7848 18.1801C0.979778 18.9648 0.517618 20.0358 0.50018 21.1601L2 21.1833L3.49982 21.2066C3.50494 20.8762 3.64076 20.5604 3.87877 20.3284L2.83178 19.2543ZM2 21.1833H0.5V28.7154H2H3.5V21.1833H2ZM2 28.7154H0.5C0.5 29.8454 0.949939 30.9284 1.74973 31.7263L2.80918 30.6645L3.86863 29.6026C3.6322 29.3667 3.5 29.0475 3.5 28.7154H2ZM2.80918 30.6645L1.74973 31.7263C2.47399 32.4489 3.38021 32.9718 4.60491 32.9718V31.4718V29.9718C4.36419 29.9718 4.18058 29.9138 3.86863 29.6026L2.80918 30.6645ZM6.71624 30.6645L7.77569 31.7263C8.57548 30.9284 9.02541 29.8454 9.02541 28.7154H7.52541H6.02541C6.02541 29.0475 5.89321 29.3667 5.65679 29.6026L6.71624 30.6645ZM4.60491 31.4718L4.60559 32.9718L4.78478 32.9717L4.78411 31.4717L4.78344 29.9717L4.60424 29.9718L4.60491 31.4718ZM4.78411 31.4717L4.79569 32.9717C5.91323 32.9631 6.9838 32.5164 7.77569 31.7263L6.71624 30.6645L5.65679 29.6026C5.42256 29.8363 5.10496 29.9692 4.77253 29.9718L4.78411 31.4717ZM7.56811 18.4697L7.56811 16.9697L4.78413 16.9697L4.78413 18.4697L4.78413 19.9697L7.56811 19.9697L7.56811 18.4697ZM7.56811 28.7154H9.06811V18.4697H7.56811H6.06811V28.7154H7.56811Z" fill="#111827"/>
</svg>
