<svg width="38" height="41" viewBox="0 0 38 41" fill="none" xmlns="http://www.w3.org/2000/svg">
<path d="M26.3039 6.13952H27.3652C31.9676 6.13952 35.6986 9.87352 35.6986 14.4796V31.1599C35.6986 35.766 31.9676 39.5 27.3652 39.5H10.6986C6.0962 39.5 2.36523 35.766 2.36523 31.1599V14.4796C2.36523 9.87352 6.0962 6.13952 10.6986 6.13952H11.7599M18.0172 20.0926H26.3185M18.0172 28.4327H26.3185M11.7464 28.4327H11.7672M11.7463 20.0926H11.7672M15.4902 9.50611H22.5736C24.6446 9.50611 26.3236 7.82581 26.3236 5.75305C26.3236 3.6803 24.6446 2 22.5736 2H15.4902C13.4192 2 11.7402 3.6803 11.7402 5.75305C11.7402 7.82581 13.4192 9.50611 15.4902 9.50611Z" stroke="#111827" stroke-width="3" stroke-linecap="round"/>
</svg>
